<?xml version="1.0" encoding="UTF-8"?>
<svg width="13px" height="13px" viewBox="0 0 13 13" version="1.1" xmlns="http://www.w3.org/2000/svg" xmlns:xlink="http://www.w3.org/1999/xlink">
    <title>arrow-right-solid</title>
    <g id="Page-1" stroke="none" stroke-width="1" fill="none" fill-rule="evenodd" opacity="0.599937802">
        <g id="Desktop-HD-Copy-5" transform="translate(-646.000000, -507.000000)" fill="#FFFFFF" fill-rule="nonzero">
            <g id="header" transform="translate(163.000000, 234.000000)">
                <g id="Group-3-Copy" transform="translate(347.000000, 257.000000)">
                    <g id="arrow-right-solid" transform="translate(136.000000, 16.000000)">
                        <path d="M5.5272849,0.870735058 L6.17140944,0.209869476 C6.44414686,-0.0699564919 6.88516907,-0.0699564919 7.15500502,0.209869476 L12.7954469,5.99393176 C13.0681844,6.27375773 13.0681844,6.72624227 12.7954469,7.00309137 L7.15500502,12.7901305 C6.8822676,13.0699565 6.4412454,13.0699565 6.17140944,12.7901305 L5.5272849,12.1292649 C5.25164602,11.8464621 5.25744895,11.3850469 5.53889075,11.1081978 L9.03515233,7.6907488 L0.696350854,7.6907488 C0.310456422,7.6907488 0,7.37222349 0,6.97629952 L0,6.02370048 C0,5.62777651 0.310456422,5.3092512 0.696350854,5.3092512 L9.03515233,5.3092512 L5.53889075,1.89180215 C5.25454748,1.61495306 5.24874456,1.1535379 5.5272849,0.870735058 Z" id="Path"></path>
                    </g>
                </g>
            </g>
        </g>
    </g>
</svg>