<?xml version="1.0" encoding="UTF-8"?>
<svg width="67px" height="67px" viewBox="0 0 67 67" version="1.1" xmlns="http://www.w3.org/2000/svg" xmlns:xlink="http://www.w3.org/1999/xlink">
    <title>Group 6</title>
    <g id="Page-1" stroke="none" stroke-width="1" fill="none" fill-rule="evenodd">
        <g id="Desktop-HD-Copy-4" transform="translate(-1438.000000, -2511.000000)">
            <g id="Group-6" transform="translate(1438.279055, 2511.278207)">
                <path d="M8.5,17 C7.03321875,17 5.84375,15.8110625 5.84375,14.34375 C5.84375,12.5858438 4.41415625,11.15625 2.65625,11.15625 C1.18946875,11.15625 0,9.9673125 0,8.5 C0,7.0326875 1.18946875,5.84375 2.65625,5.84375 C4.41415625,5.84375 5.84375,4.41415625 5.84375,2.65625 C5.84375,1.1889375 7.03321875,0 8.5,0 C9.96678125,0 11.15625,1.1889375 11.15625,2.65625 C11.15625,4.41415625 12.5858437,5.84375 14.34375,5.84375 C15.8105313,5.84375 17,7.0326875 17,8.5 C17,9.9673125 15.8105313,11.15625 14.34375,11.15625 C12.5858437,11.15625 11.15625,12.5858438 11.15625,14.34375 C11.15625,15.8105312 9.96678125,17 8.5,17 Z" id="Path" fill="#FF7EB8" fill-rule="nonzero"></path>
                <path d="M41.1916814,65.1063285 C40.6572662,65.1063285 40.1446146,64.894604 39.7665743,64.5166394 L35.2079241,59.963756 C34.4208103,59.1780405 34.4208103,57.9036679 35.2079241,57.1179524 L39.7665743,52.5650691 C40.1446146,52.187507 40.6568632,51.9753799 41.1916814,51.9753799 C41.7264996,51.9753799 42.2387483,52.1871045 42.6167886,52.5650691 L47.1750357,57.1179524 C47.9621495,57.9036679 47.9621495,59.1780405 47.1750357,59.963756 L42.6167886,64.5166394 C42.2387483,64.894604 41.7260966,65.1063285 41.1916814,65.1063285 Z M39.4832455,58.5408542 L41.1916814,60.2471289 L42.9001173,58.5408542 L41.1916814,56.8345796 L39.4832455,58.5408542 Z" id="Shape" fill="#6583FE" fill-rule="nonzero"></path>
                <circle id="Oval" stroke="#97E7EC" stroke-width="4" cx="60.2209447" cy="19.2217934" r="3.5"></circle>
            </g>
        </g>
    </g>
</svg>