<?xml version="1.0" encoding="UTF-8"?>
<svg width="104px" height="113px" viewBox="0 0 104 113" version="1.1" xmlns="http://www.w3.org/2000/svg" xmlns:xlink="http://www.w3.org/1999/xlink">
    <title>024-landing page</title>
    <g id="Page-1" stroke="none" stroke-width="1" fill="none" fill-rule="evenodd">
        <g id="Desktop-HD-Copy-4" transform="translate(-261.000000, -803.000000)" fill-rule="nonzero">
            <g id="024-landing-page" transform="translate(261.000000, 803.000000)">
                <path d="M99.1767355,19 L75,19 L75,100 L99.1767355,100 C101.2873,100 103,98.418754 103,96.4707061 L103,22.5295291 C103,20.5810108 101.287045,19 99.1767355,19 Z" id="Path" fill="#FFFFFF"></path>
                <path d="M93.2800192,73 L76,73 L76,102 L93.2800192,102 C93.6776635,102 94,101.664596 94,101.25083 L94,73.7491696 C94,73.3354044 93.6776635,73 93.2800192,73 Z" id="Path" fill="#FFA8CF"></path>
                <path d="M93.2800192,38 L76,38 L76,67 L93.2800192,67 C93.6776635,67 94,66.6645956 94,66.2508304 L94,38.7491696 C94,38.3354044 93.6776635,38 93.2800192,38 Z" id="Path" fill="#97E7EC"></path>
                <path d="M99.1767355,18 L75,18 L75,29 L103,29 L103,21.4251634 C103,19.5334509 101.288064,18 99.1767355,18 L99.1767355,18 Z" id="Path" fill="#97E7EC"></path>
                <path d="M25,19 L4.36905898,19 C2.50923068,19 1,20.5812505 1,22.5293042 L1,96.4706958 C1,98.4189846 2.50945514,100 4.36905898,100 L25,100 L25,19 L25,19 Z" id="Path" fill="#FFFFFF"></path>
                <path d="M27,91 L27,59 L8.71247627,59 C8.31897672,59 8,59.3255913 8,59.7272507 L8,90.2727493 C8,90.6744087 8.31897672,91 8.71247627,91 L27,91 Z" id="Path" fill="#FFA8CF"></path>
                <path d="M27,53 L27,43 L8.71247627,43 C8.31897672,43 8,43.3197792 8,43.7142687 L8,52.2857313 C8,52.6802208 8.31897672,53 8.71247627,53 L27,53 Z" id="Path" fill="#9FB0FE"></path>
                <path d="M25,18 L4.36909048,18 C2.50834697,18 1,19.5334509 1,21.4251634 L1,29 L25,29 L25,18 Z" id="Path" fill="#FF7EB8"></path>
                <path d="M86,15.5620421 L86,104.437958 C86,106.404319 84.4159246,108 82.4643909,108 L23.5356091,108 C21.5838398,108 20,106.404082 20,104.437958 L20,15.5620421 C20,13.5956809 21.5840754,12 23.5356091,12 L82.4643909,12 C84.4159246,12 86,13.5956809 86,15.5620421 Z" id="Path" fill="#FFFFFF"></path>
                <polygon id="Path" fill="#FFA8CF" points="20 31 86 31 86 63 20 63"></polygon>
                <path d="M86,31 L86,56.2115482 C83.1864474,57.3654884 80.0982894,58 76.8620241,58 C63.6833904,58 53,47.4700263 53,34.4835931 C53,33.300942 53.0898356,32.1371922 53.2600375,31 L86,31 Z" id="Path" fill="#FF7EB8"></path>
                <path d="M86,23 L86,15.4251634 C86,13.5334509 84.4171024,12 82.4643909,12 L23.5356091,12 C21.5828976,12 20,13.5334509 20,15.4251634 L20,23 L86,23 Z" id="Path" fill="#B7C5FF"></path>
                <g id="Group" transform="translate(0.000000, 10.000000)">
                    <path d="M99.2487671,7.31195913 L86.4524932,7.31195913 L86.4524932,4.92953365 C86.4524932,2.30389183 84.320968,0.167538462 81.7012603,0.167538462 L22.2989772,0.167538462 C19.679032,0.167538462 17.5477443,2.30389183 17.5477443,4.92953365 L17.5477443,7.31195913 L4.75123288,7.31195913 C2.13128767,7.31195913 -0.000237442922,9.44807452 -0.000237442922,12.0739543 L-0.000237442922,86.9110529 C-0.000237442922,89.5369327 2.13128767,91.6732861 4.75123288,91.6732861 L12.1953059,91.6732861 C12.8508858,91.6732861 13.3825205,91.1406851 13.3825205,90.4833822 C13.3825205,89.8260793 12.8508858,89.2934784 12.1953059,89.2934784 L4.75123288,89.2934784 C3.44054795,89.2934784 2.37419178,88.2247067 2.37419178,86.9110529 L2.37419178,21.1636298 L17.5472694,21.1636298 L17.5472694,94.0554736 C17.5472694,96.6813534 19.6787945,98.8177067 22.2985023,98.8177067 L81.7007854,98.8177067 C84.3207306,98.8177067 86.4520183,96.6813534 86.4520183,94.0554736 L86.4520183,91.6732861 L99.2482922,91.6732861 C101.868237,91.6732861 103.999525,89.5369327 103.999525,86.9110529 L103.999525,12.0739543 C103.999525,9.44807452 101.868475,7.31195913 99.2487671,7.31195913 Z M99.2487671,9.69176683 C100.559452,9.69176683 101.625571,10.7605385 101.625571,12.0741923 L101.625571,18.7838221 L86.4524932,18.7838221 L86.4524932,9.69176683 L99.2487671,9.69176683 Z M22.2989772,2.54734615 L81.7012603,2.54734615 C83.0119452,2.54734615 84.0780639,3.61587981 84.0780639,4.92953365 L84.0780639,11.6394014 L19.9219361,11.6394014 L19.9219361,4.92953365 C19.9219361,3.61587981 20.9882922,2.54734615 22.2989772,2.54734615 Z M2.37419178,18.7838221 L2.37419178,12.0741923 C2.37419178,10.7605385 3.44054795,9.69176683 4.75123288,9.69176683 L17.5475068,9.69176683 L17.5475068,18.7838221 L2.37419178,18.7838221 Z M99.2487671,89.2934784 L86.4524932,89.2934784 L86.4524932,26.5277163 C86.4524932,25.8704135 85.9208584,25.3378125 85.2652785,25.3378125 C84.6096986,25.3378125 84.0780639,25.8704135 84.0780639,26.5277163 L84.0780639,94.0554736 C84.0780639,95.3691274 83.0117078,96.437899 81.7012603,96.437899 L22.2989772,96.437899 C20.9882922,96.437899 19.9221735,95.3691274 19.9221735,94.0554736 L19.9221735,14.0192091 L84.0780639,14.0192091 L84.0780639,19.973726 C84.0780639,20.6310288 84.6096986,21.1636298 85.2652785,21.1636298 L101.625571,21.1636298 L101.625571,86.9110529 C101.625571,88.2247067 100.559215,89.2934784 99.2487671,89.2934784 Z" id="Shape" fill="#5F6089"></path>
                    <path d="M10.2356895,13.030637 C9.58010959,13.030637 9.04847489,13.563238 9.04847489,14.2205409 L9.04847489,14.2550481 C9.04847489,14.912351 9.58010959,15.4449519 10.2356895,15.4449519 C10.8912694,15.4449519 11.4229041,14.912351 11.4229041,14.2550481 L11.4229041,14.2205409 C11.4229041,13.563238 10.8915068,13.030637 10.2356895,13.030637 Z" id="Path" fill="#62638E"></path>
                    <path d="M14.8275982,13.030637 C14.1720183,13.030637 13.6403836,13.563238 13.6403836,14.2205409 L13.6403836,14.2550481 C13.6403836,14.912351 14.1720183,15.4449519 14.8275982,15.4449519 C15.4831781,15.4449519 16.0148128,14.912351 16.0148128,14.2550481 L16.0148128,14.2205409 C16.0148128,13.563238 15.4831781,13.030637 14.8275982,13.030637 Z" id="Path" fill="#62638E"></path>
                    <path d="M27.7834338,8.30053125 C28.4390137,8.30053125 28.9706484,7.76793029 28.9706484,7.1106274 L28.9706484,7.07588221 C28.9706484,6.41857933 28.4390137,5.88597837 27.7834338,5.88597837 C27.1278539,5.88597837 26.5962192,6.41857933 26.5962192,7.07588221 L26.5962192,7.1106274 C26.5962192,7.76793029 27.1278539,8.30053125 27.7834338,8.30053125 Z" id="Path" fill="#62638E"></path>
                    <path d="M32.375105,8.30053125 C33.0306849,8.30053125 33.5623196,7.76793029 33.5623196,7.1106274 L33.5623196,7.07588221 C33.5623196,6.41857933 33.0306849,5.88597837 32.375105,5.88597837 C31.7195251,5.88597837 31.1878904,6.41857933 31.1878904,7.07588221 L31.1878904,7.1106274 C31.1878904,7.76793029 31.7195251,8.30053125 32.375105,8.30053125 Z" id="Path" fill="#62638E"></path>
                    <path d="M36.9670137,8.30053125 C37.6225936,8.30053125 38.1542283,7.76793029 38.1542283,7.1106274 L38.1542283,7.07588221 C38.1542283,6.41857933 37.6225936,5.88597837 36.9670137,5.88597837 C36.3114338,5.88597837 35.7797991,6.41857933 35.7797991,7.07588221 L35.7797991,7.1106274 C35.7797991,7.76793029 36.3111963,8.30053125 36.9670137,8.30053125 Z" id="Path" fill="#62638E"></path>
                    <path d="M77.1682374,32.4672404 C76.7045114,32.0027019 75.9530046,32.0029399 75.4892785,32.4670024 C75.0255525,32.9317788 75.0255525,33.685226 75.4892785,34.1497644 L76.0382466,34.7002139 L75.4892785,35.2506635 C75.0255525,35.7152019 75.0255525,36.468649 75.4892785,36.9334255 C75.7210228,37.1656947 76.0247123,37.2818293 76.3286393,37.2818293 C76.6325662,37.2818293 76.9364932,37.1656947 77.1682374,36.9331875 L78.5565662,35.541476 C79.0202922,35.0769375 79.0202922,34.3234904 78.5565662,33.8589519 L77.1682374,32.4672404 Z" id="Path" fill="#62638E"></path>
                    <path d="M28.5107215,32.4670024 C28.0472329,32.0027019 27.2952511,32.0024639 26.8317626,32.4672404 L25.4434338,33.8589519 C24.9797078,34.3234904 24.9797078,35.0769375 25.4434338,35.541476 L26.8317626,36.9331875 C27.0637443,37.1656947 27.3674338,37.2818293 27.6713607,37.2818293 C27.9750502,37.2818293 28.2789772,37.1656947 28.5107215,36.9334255 C28.9744475,36.468649 28.9744475,35.7152019 28.5107215,35.2506635 L27.9617534,34.7002139 L28.5107215,34.1497644 C28.9744475,33.685226 28.9744475,32.9317788 28.5107215,32.4670024 L28.5107215,32.4670024 Z" id="Path" fill="#62638E"></path>
                </g>
                <circle id="Oval" fill="#4369FD" cx="49" cy="58" r="1"></circle>
                <circle id="Oval" fill="#FF5BA8" cx="52" cy="58" r="1"></circle>
                <circle id="Oval" fill="#FF5BA8" cx="55" cy="58" r="1"></circle>
                <path d="M39.2572984,80 L23.7427016,80 C23.3325087,80 23,79.681906 23,79.2894955 L23,68.7105045 C23,68.318094 23.3325087,68 23.7427016,68 L39.2572984,68 C39.6674913,68 40,68.318094 40,68.7105045 L40,79.2894955 C40,79.681906 39.6674913,80 39.2572984,80 Z" id="Path" fill="#6583FE"></path>
                <path d="M37,81 L31,81 L31,74.6480802 C31,74.2901465 31.3357622,74 31.7499688,74 L36.2500312,74 C36.6642378,74 37,74.2901465 37,74.6480802 L37,81 Z" id="Path" fill="#9FB0FE"></path>
                <path d="M35.7691277,87 L27.2308723,87 C26.5510929,87 26,86.5522745 26,86 C26,85.4477255 26.5508473,85 27.2308723,85 L35.7691277,85 C36.4489071,85 37,85.4477255 37,86 C37,86.5522745 36.4489071,87 35.7691277,87 Z" id="Path" fill="#FF7EB8"></path>
                <path d="M38.8036675,96 L24.1963325,96 C23.5356285,96 23,95.5522745 23,95 C23,94.4477255 23.5353898,94 24.1963325,94 L38.8036675,94 C39.4643715,94 40,94.4477255 40,95 C40,95.5522745 39.4643715,96 38.8036675,96 Z" id="Path" fill="#B7C5FF"></path>
                <path d="M38.8036675,100 L24.1963325,100 C23.5356285,100 23,99.5522745 23,99 C23,98.4477255 23.5353898,98 24.1963325,98 L38.8036675,98 C39.4643715,98 40,98.4477255 40,99 C40,99.5522745 39.4643715,100 38.8036675,100 Z" id="Path" fill="#B7C5FF"></path>
                <path d="M60.2572984,80 L44.7427016,80 C44.3325087,80 44,79.681906 44,79.2894955 L44,68.7105045 C44,68.318094 44.3325087,68 44.7427016,68 L60.2572984,68 C60.6674913,68 61,68.318094 61,68.7105045 L61,79.2894955 C61,79.681906 60.6674913,80 60.2572984,80 Z" id="Path" fill="#6583FE"></path>
                <path d="M57,81 L51,81 L51,74.6480802 C51,74.2901465 51.3357622,74 51.7499688,74 L56.2500312,74 C56.6642378,74 57,74.2901465 57,74.6480802 L57,81 Z" id="Path" fill="#9FB0FE"></path>
                <path d="M54.7691277,87 L46.2308723,87 C45.5510929,87 45,86.5522745 45,86 C45,85.4477255 45.5508473,85 46.2308723,85 L54.7691277,85 C55.4489071,85 56,85.4477255 56,86 C56,86.5522745 55.4491527,87 54.7691277,87 Z" id="Path" fill="#FF7EB8"></path>
                <path d="M59.8036675,96 L45.1963325,96 C44.5356285,96 44,95.5522745 44,95 C44,94.4477255 44.5353898,94 45.1963325,94 L59.8036675,94 C60.4643715,94 61,94.4477255 61,95 C61,95.5522745 60.4643715,96 59.8036675,96 Z" id="Path" fill="#B7C5FF"></path>
                <path d="M59.8036675,100 L45.1963325,100 C44.5356285,100 44,99.5522745 44,99 C44,98.4477255 44.5353898,98 45.1963325,98 L59.8036675,98 C60.4643715,98 61,98.4477255 61,99 C61,99.5522745 60.4643715,100 59.8036675,100 Z" id="Path" fill="#B7C5FF"></path>
                <path d="M80.2572984,80 L64.7427016,80 C64.3325087,80 64,79.681906 64,79.2894955 L64,68.7105045 C64,68.318094 64.3325087,68 64.7427016,68 L80.2572984,68 C80.6674913,68 81,68.318094 81,68.7105045 L81,79.2894955 C81,79.681906 80.6674913,80 80.2572984,80 Z" id="Path" fill="#6583FE"></path>
                <path d="M76.9997502,81 L71,81 L71,74.6480802 C71,74.2901465 71.3357622,74 71.7499688,74 L76.2500312,74 C76.6642378,74 77,74.2901465 77,74.6480802 L77,81 L76.9997502,81 Z" id="Path" fill="#9FB0FE"></path>
                <path d="M75.7691277,87 L67.2308723,87 C66.5510929,87 66,86.5522745 66,86 C66,85.4477255 66.5508473,85 67.2308723,85 L75.7691277,85 C76.4489071,85 77,85.4477255 77,86 C77,86.5522745 76.4489071,87 75.7691277,87 Z" id="Path" fill="#FF7EB8"></path>
                <path d="M79.8036675,96 L65.1963325,96 C64.5356285,96 64,95.5522745 64,95 C64,94.4477255 64.5353898,94 65.1963325,94 L79.8036675,94 C80.4643715,94 81,94.4477255 81,95 C81,95.5522745 80.4643715,96 79.8036675,96 Z" id="Path" fill="#B7C5FF"></path>
                <path d="M79.8036675,100 L65.1963325,100 C64.5356285,100 64,99.5522745 64,99 C64,98.4477255 64.5353898,98 65.1963325,98 L79.8036675,98 C80.4643715,98 81,98.4477255 81,99 C81,99.5522745 80.4643715,100 79.8036675,100 Z" id="Path" fill="#B7C5FF"></path>
                <path d="M91.5001093,14 C91.2103637,14 90.9324177,13.8850695 90.7274543,13.6798989 L88.3199001,11.2722576 C88.1149368,11.0673055 88,10.7895932 88,10.4998634 C88,10.2101337 88.1151553,9.93220286 88.3199001,9.72746923 L90.7274543,7.32004651 C91.1542063,6.89331783 91.8457937,6.89331783 92.2725457,7.32004651 L94.6800999,9.72746923 C94.8850632,9.93242136 95,10.2101337 95,10.4998634 C95,10.7895932 94.8848447,11.067524 94.6800999,11.2722576 L92.2727642,13.6798989 C92.0678008,13.8850695 91.7898548,14 91.5001093,14 L91.5001093,14 Z M90.6378648,10.5000819 L91.5003278,11.3624978 L92.3627907,10.5000819 L91.5003278,9.63788462 L90.6378648,10.5000819 Z" id="Shape" fill="#FF7EB8"></path>
                <path d="M11.5001093,113 C11.2103637,113 10.9324177,112.885069 10.7274543,112.679899 L8.31990011,110.272258 C8.11493679,110.067306 8,109.789593 8,109.499863 C8,109.210134 8.1151553,108.932203 8.31990011,108.727469 L10.7274543,106.320047 C11.1542063,105.893318 11.8457937,105.893318 12.2725457,106.320047 L14.6800999,108.727469 C14.8850632,108.932421 15,109.210134 15,109.499863 C15,109.789593 14.8848447,110.067524 14.6800999,110.272258 L12.2727642,112.679899 C12.0680194,112.884851 11.7900734,113 11.5001093,113 L11.5001093,113 Z M10.6378648,109.499863 L11.5003278,110.362279 L12.3627907,109.499863 L11.5003278,108.637666 L10.6378648,109.499863 Z" id="Shape" fill="#6583FE"></path>
                <path d="M81.5000273,7 C81.2203398,7 80.9408707,6.89336788 80.7273905,6.67988513 L78.3198926,4.27235907 C78.1149341,4.06739815 78,3.78967392 78,3.49993172 C78,3.21018952 78.1151526,2.93224678 78.3198926,2.72750436 L80.7273905,0.31997831 C81.154351,-0.106768684 81.8459221,-0.106550176 82.2724456,0.31997831 L84.6799435,2.72750436 C85.1066855,3.15403285 85.1066855,3.84583059 84.6799435,4.27235907 L82.2724456,6.67988513 C82.0591839,6.89336788 81.7797148,7 81.5000273,7 Z M80.6375846,3.49993172 L81.5000273,4.36216604 L82.3622515,3.49993172 L81.5000273,2.63769739 L80.6375846,3.49993172 Z" id="Shape" fill="#6583FE"></path>
                <path d="M97.5,113 C96.89671,113 96.4074791,112.510988 96.4074791,111.907479 C96.4074791,111.182482 95.8175178,110.592521 95.0925209,110.592521 C94.4892309,110.592521 94,110.103509 94,109.5 C94,108.896491 94.4892309,108.407479 95.0925209,108.407479 C95.8175178,108.407479 96.4074791,107.817736 96.4074791,107.092521 C96.4074791,106.489012 96.89671,106 97.5,106 C98.10329,106 98.5925209,106.489012 98.5925209,107.092521 C98.5925209,107.817518 99.1824822,108.407479 99.9074791,108.407479 C100.510769,108.407479 101,108.896491 101,109.5 C101,110.103509 100.510769,110.592521 99.9074791,110.592521 C99.1824822,110.592521 98.5925209,111.182264 98.5925209,111.907479 C98.5925209,112.510988 98.10329,113 97.5,113 Z" id="Path" fill="#97FFD2"></path>
            </g>
        </g>
    </g>
</svg>