<?xml version="1.0" encoding="UTF-8"?>
<svg width="108px" height="105px" viewBox="0 0 108 105" version="1.1" xmlns="http://www.w3.org/2000/svg" xmlns:xlink="http://www.w3.org/1999/xlink">
    <title>047-profile</title>
    <g id="Page-1" stroke="none" stroke-width="1" fill="none" fill-rule="evenodd">
        <g id="Desktop-HD-Copy-4" transform="translate(-1285.000000, -807.000000)" fill-rule="nonzero">
            <g id="047-profile" transform="translate(1285.000000, 807.000000)">
                <path d="M81,11.3137582 L81,98.6862418 C81,101.068363 79.0793561,103 76.7107924,103 L28.2892076,103 C25.9206439,103 24,101.068363 24,98.6862418 L24,11.3137582 C24,8.93163729 25.9206439,7 28.2892076,7 L76.7107924,7 C79.0793561,7 81,8.93163729 81,11.3137582 Z" id="Path" fill="#FFFFFF"></path>
                <path d="M81,32 L81,11.3642101 C81,8.95388268 79.0898529,7 76.7339333,7 L28.2660667,7 C25.9099087,7 24,8.95388268 24,11.3642101 L24,32 L81,32 Z" id="Path" fill="#FFC4DF"></path>
                <path d="M69.0842411,13.4369486 L71,7 L33,7 L34.9157589,13.4369486 C35.1930682,14.3689673 35.9871267,15 36.883049,15 L67.1171907,15 C68.0128733,15 68.8069318,14.3692268 69.0842411,13.4369486 L69.0842411,13.4369486 Z" id="Path" fill="#B7C5FF"></path>
                <g id="Group" transform="translate(22.000000, 5.000000)" fill="#5F6089">
                    <path d="M45.8309283,9.97323601 L15.1744183,9.97323601 C13.733992,9.97323601 12.4675737,9.04525547 12.0230757,7.66423358 L10.0805538,1.62822384 C9.87470916,0.988807786 10.2258845,0.303406326 10.8645618,0.097323601 C11.5034821,-0.109002433 12.1880916,0.242822384 12.3936932,0.882238443 L14.3362151,6.91824818 C14.4560279,7.29026764 14.7928645,7.54038929 15.1744183,7.54038929 L45.8309283,7.54038929 C46.2124821,7.54038929 46.5493187,7.29026764 46.6691315,6.91800487 L48.6114104,0.882238443 C48.817255,0.242822384 49.5016215,-0.108759124 50.1405418,0.097323601 C50.7792191,0.303406326 51.1303944,0.988807786 50.9245498,1.62822384 L48.9820279,7.66423358 C48.5375299,9.04525547 47.2711116,9.97323601 45.8309283,9.97323601 Z" id="Path"></path>
                    <path d="M55.1853147,99.8982968 L5.81978884,99.8982968 C2.73843825,99.8982968 0.231848606,97.3885645 0.231848606,94.3038929 L0.231848606,86.6995134 C0.231848606,86.0277372 0.775988048,85.4829684 1.44698805,85.4829684 C2.11798805,85.4829684 2.66212749,86.0277372 2.66212749,86.6995134 L2.66212749,94.3038929 C2.66212749,96.0472019 4.07873705,97.4652068 5.81978884,97.4652068 L55.1853147,97.4652068 C56.9266096,97.4652068 58.3429761,96.0469586 58.3429761,94.3038929 L58.3429761,73.1678832 C58.3429761,72.4961071 58.8871155,71.9513382 59.5581155,71.9513382 C60.2291155,71.9513382 60.773255,72.4961071 60.773255,73.1678832 L60.773255,94.3038929 C60.773255,97.3885645 58.2666653,99.8982968 55.1853147,99.8982968 L55.1853147,99.8982968 Z" id="Path"></path>
                    <path d="M59.5581155,57.0158151 C58.8871155,57.0158151 58.3429761,56.4710462 58.3429761,55.7992701 L58.3429761,44.120438 C58.3429761,43.4486618 58.8871155,42.9038929 59.5581155,42.9038929 C60.2291155,42.9038929 60.773255,43.4486618 60.773255,44.120438 L60.773255,55.7992701 C60.773255,56.4710462 60.2293586,57.0158151 59.5581155,57.0158151 Z" id="Path"></path>
                    <path d="M1.44698805,20.2885645 C0.775988048,20.2885645 0.231848606,19.7437956 0.231848606,19.0720195 L0.231848606,5.63309002 C0.231848606,2.54817518 2.73843825,0.0386861314 5.81978884,0.0386861314 L55.1853147,0.0386861314 C58.2666653,0.0386861314 60.773255,2.54817518 60.773255,5.63309002 L60.773255,14.3557178 C60.773255,15.0274939 60.2291155,15.5722628 59.5581155,15.5722628 C58.8871155,15.5722628 58.3429761,15.0274939 58.3429761,14.3557178 L58.3429761,5.63309002 C58.3429761,3.88978102 56.9263665,2.47177616 55.1853147,2.47177616 L5.81978884,2.47177616 C4.07849402,2.47177616 2.66212749,3.89002433 2.66212749,5.63309002 L2.66212749,19.0722628 C2.66212749,19.7440389 2.11798805,20.2885645 1.44698805,20.2885645 Z" id="Path"></path>
                    <path d="M1.44698805,51.6545012 C0.775988048,51.6545012 0.231848606,51.1097324 0.231848606,50.4379562 L0.231848606,41.4440389 C0.231848606,40.7722628 0.775988048,40.2274939 1.44698805,40.2274939 C2.11798805,40.2274939 2.66212749,40.7722628 2.66212749,41.4440389 L2.66212749,50.4379562 C2.66212749,51.1097324 2.11798805,51.6545012 1.44698805,51.6545012 Z" id="Path"></path>
                </g>
                <circle id="Oval" fill="#FF7EB8" cx="52" cy="49" r="11"></circle>
                <path d="M55.5966863,51.5942711 C56.4589722,50.7911713 57,49.6601615 57,48.4057289 C57,45.9764677 54.9812332,44 52.4998745,44 C50.0187665,44 48,45.9764677 48,48.4057289 C48,49.6601615 48.5410274,50.7911713 49.4033133,51.5942711 C48.5410274,52.3973709 48,53.5283807 48,54.7828133 C48,55.4549438 48.5610747,56 49.2529583,56 C49.9448419,56 50.5059167,55.4549438 50.5059167,54.7828133 C50.5059167,53.6958656 51.4002783,52.8114578 52.4998745,52.8114578 C53.5994708,52.8114578 54.494083,53.6958656 54.494083,54.7828133 C54.494083,55.4549438 55.0551577,56 55.7470413,56 C56.4389249,56 57,55.4549438 57,54.7828133 C57.0002502,53.5283807 56.4592228,52.3973709 55.5966863,51.5942711 Z M50.5061672,48.4057289 C50.5061672,47.3187812 51.4005289,46.4343734 52.5001251,46.4343734 C53.5997213,46.4343734 54.4943336,47.3187812 54.4943336,48.4057289 C54.4943336,49.4926766 53.5997213,50.3770844 52.5001251,50.3770844 C51.4005289,50.3770844 50.5061672,49.4926766 50.5061672,48.4057289 Z" id="Shape" fill="#FFFFFF"></path>
                <path d="M60.7997803,69 L45.2002197,69 C44.5373802,69 44,68.3282887 44,67.5 C44,66.6717113 44.5371448,66 45.2002197,66 L60.7997803,66 C61.4626198,66 62,66.6717113 62,67.5 C62,68.3282887 61.4626198,69 60.7997803,69 Z" id="Path" fill="#B7C5FF"></path>
                <path d="M55.7453248,74 L48.2546752,74 C47.5617618,74 47,73.3282887 47,72.5 C47,71.6717113 47.5615157,71 48.2546752,71 L55.7453248,71 C56.4382382,71 57,71.6717113 57,72.5 C56.9997539,73.3282887 56.4382382,74 55.7453248,74 Z" id="Path" fill="#6583FE"></path>
                <circle id="Oval" fill="#D2DEFF" cx="56.5" cy="87.5" r="1.5"></circle>
                <path d="M52.5,86 C53.3284508,86 54,86.6715861 54,87.5 C54,88.3284139 53.3284508,89 52.5,89 C51.6715492,89 51,88.3284139 51,87.5 C51,86.6715861 51.6715492,86 52.5,86 Z" id="Path" fill="#D2DEFF"></path>
                <circle id="Oval" fill="#D2DEFF" cx="48.5" cy="87.5" r="1.5"></circle>
                <path d="M90.6340794,79 L77.3659206,79 C76.0592008,79 75,77.8774102 75,76.4922933 L75,64.5077067 C75,63.1228389 76.0592008,62 77.3659206,62 L90.6340794,62 C91.9407992,62 93,63.1225898 93,64.5077067 L93,76.4922933 C93,77.8771611 91.9407992,79 90.6340794,79 Z" id="Path" fill="#97E7EC"></path>
                <path d="M90.3376392,80 L76.6626057,80 C74.6430312,80 73,78.358858 73,76.341363 L73,64.6583941 C73,62.641142 74.6430312,61 76.6626057,61 L90.3376392,61 C92.3572136,61 94,62.641142 94,64.6583941 L94,76.341363 C94.0002448,78.358858 92.3572136,80 90.3376392,80 Z M76.6626057,63.4278412 C75.993005,63.4278412 75.4482658,63.9797447 75.4482658,64.6581513 L75.4482658,76.3411202 C75.4482658,77.0195269 75.993005,77.5716732 76.6626057,77.5716732 L90.3376392,77.5716732 C91.0072399,77.5716732 91.5517342,77.0197697 91.5517342,76.3411202 L91.5517342,64.6583941 C91.5517342,63.9799875 91.006995,63.428084 90.3376392,63.428084 L76.6626057,63.4278412 Z" id="Shape" fill="#5F6089"></path>
                <path d="M82.058758,75 C81.8821534,75 81.7034211,74.944902 81.5389448,74.8291962 C81.0291322,74.4705345 80.849336,73.6647919 81.1372227,73.0295907 L84.017579,66.6715443 C84.3052529,66.0363431 84.9516681,65.8122779 85.4610552,66.1709396 C85.9708678,66.5296013 86.150664,67.3353439 85.8627773,67.9705451 L82.982421,74.3285916 C82.7877305,74.7583559 82.4285636,75 82.058758,75 Z" id="Path" fill="#FFFFFF"></path>
                <path d="M30.1715035,45 L3.82849649,45 C2.81858389,45 2,44.2129205 2,43.2422588 L2,26.7577412 C2,25.7868472 2.81858389,25 3.82849649,25 L30.1715035,25 C31.1814161,25 32,25.7870795 32,26.7577412 L32,43.2422588 C32,44.2131528 31.1814161,45 30.1715035,45 Z" id="Path" fill="#FF7EB8"></path>
                <path d="M28.9914592,47 L3.00854083,47 C1.34966183,47 0,45.5919534 0,43.8611253 L0,26.1388747 C0,24.4080466 1.34966183,23 3.00854083,23 L28.9914592,23 C30.6503382,23 32,24.4080466 32,26.1388747 L32,43.8611253 C32,45.5919534 30.6503382,47 28.9914592,47 Z M3.00854083,25.4983084 C2.67859671,25.4983084 2.41011041,25.7856139 2.41011041,26.1388747 L2.41011041,43.8611253 C2.41011041,44.2143861 2.67859671,44.5016916 3.00854083,44.5016916 L28.9914592,44.5016916 C29.3214033,44.5016916 29.5898896,44.2143861 29.5898896,43.8611253 L29.5898896,26.1388747 C29.5898896,25.7856139 29.3214033,25.4983084 28.9914592,25.4983084 L3.00854083,25.4983084 Z" id="Shape" fill="#5F6089"></path>
                <path d="M9.86549207,40 C9.5751511,40 9.28458205,39.8710318 9.06334816,39.6130953 L6.33236401,36.4338049 C5.889212,35.917932 5.889212,35.0816084 6.33236401,34.5659981 L9.06334816,31.3867077 C9.50604402,30.8710974 10.2249401,30.8710974 10.667636,31.3867077 C11.110788,31.9025807 11.110788,32.7389043 10.667636,33.2545145 L8.73902383,35.4997702 L10.667636,37.7450258 C11.110788,38.2608988 11.110788,39.0972223 10.667636,39.6128326 C10.4464021,39.8710318 10.155833,40 9.86549207,40 L9.86549207,40 Z" id="Path" fill="#FFFFFF"></path>
                <path d="M22.1345079,31 C22.4248489,31 22.7154179,31.1289682 22.9366518,31.3869047 L25.667636,34.5661951 C26.110788,35.082068 26.110788,35.9183916 25.667636,36.4340019 L22.9366518,39.6132923 C22.493956,40.1289026 21.7750599,40.1289026 21.332364,39.6132923 C20.889212,39.0974193 20.889212,38.2610957 21.332364,37.7454855 L23.2609762,35.5002298 L21.332364,33.2549742 C20.889212,32.7391012 20.889212,31.9027777 21.332364,31.3871674 C21.553826,31.1289682 21.844395,31 22.1345079,31 L22.1345079,31 Z" id="Path" fill="#FFFFFF"></path>
                <path d="M15.0588616,40 C14.882274,40 14.7035562,39.9448425 14.5388973,39.8290116 C14.0291576,39.4702249 13.8493747,38.6646621 14.1371551,38.0295624 L17.0175147,31.6714735 C17.305082,31.0363737 17.951789,30.812329 18.4611027,31.1708531 C18.9708424,31.5296398 19.1506253,32.3352026 18.8628449,32.9703023 L15.9824853,39.3283912 C15.7877916,39.7580948 15.4286519,40 15.0588616,40 L15.0588616,40 Z" id="Path" fill="#FFFFFF"></path>
                <path d="M30.1715035,91 L3.82849649,91 C2.81858389,91 2,90.1673018 2,89.1403811 L2,56.8596189 C2,55.8324524 2.81858389,55 3.82849649,55 L30.1715035,55 C31.1814161,55 32,55.8326982 32,56.8596189 L32,89.1403811 C32,90.1673018 31.1814161,91 30.1715035,91 L30.1715035,91 Z" id="Path" fill="#97E7EC"></path>
                <path d="M28.9914592,93 L3.00854083,93 C1.34966183,93 0,91.630902 0,89.9479512 L0,58.0520488 C0,56.369098 1.34966183,55 3.00854083,55 L16.6398843,55 C17.3053158,55 17.8449395,55.5438982 17.8449395,56.2146008 C17.8449395,56.8853033 17.3053158,57.4292016 16.6398843,57.4292016 L3.00854083,57.4292016 C2.67859671,57.4292016 2.41011041,57.7085597 2.41011041,58.0520488 L2.41011041,89.9479512 C2.41011041,90.2914403 2.67859671,90.5707984 3.00854083,90.5707984 L28.9914592,90.5707984 C29.3214033,90.5707984 29.5898896,90.2914403 29.5898896,89.9479512 L29.5898896,58.0520488 C29.5898896,57.7085597 29.3214033,57.4292016 28.9914592,57.4292016 L23.246238,57.4292016 C22.5808065,57.4292016 22.0411828,56.8853033 22.0411828,56.2146008 C22.0411828,55.5438982 22.5808065,55 23.246238,55 L28.9914592,55 C30.6503382,55 32,56.369098 32,58.0520488 L32,89.9479512 C32,91.630902 30.6503382,93 28.9914592,93 L28.9914592,93 Z" id="Path" fill="#5F6089"></path>
                <path d="M101.59316,50 L72.4068397,50 C71.0775712,50 70,48.8966537 70,47.5355896 L70,23.4644104 C70,22.1033463 71.0775712,21 72.4068397,21 L101.59316,21 C102.922429,21 104,22.1033463 104,23.4644104 L104,47.5355896 C104,48.8966537 102.922429,50 101.59316,50 Z" id="Path" fill="#FFFFFF"></path>
                <path d="M100.731314,21 L93,21 L93,50 L100.731314,50 C101.984242,50 103,48.8907574 103,47.5223229 L103,23.4776771 C103,22.1092426 101.984242,21 100.731314,21 Z" id="Path" fill="#CEFCFF"></path>
                <path d="M104,28 L104,22.44893 C104,21.0963727 102.928187,20 101.606117,20 L72.3938829,20 C71.0718127,20 70,21.0963727 70,22.44893 L70,28 L104,28 Z" id="Path" fill="#97E7EC"></path>
                <path d="M102.347121,51 L72.6528787,51 C70.6387589,51 69,49.3087785 69,47.2299281 L69,22.7700719 C69,20.6912215 70.6387589,19 72.6528787,19 L102.347121,19 C104.361241,19 106,20.6912215 106,22.7700719 L106,28.4830366 C106,29.1730709 105.45391,29.732646 104.780504,29.732646 C104.107098,29.732646 103.561008,29.1730709 103.561008,28.4830366 L103.561008,22.7700719 C103.561008,22.0692908 103.016381,21.499219 102.347121,21.499219 L72.6528787,21.499219 C71.9836192,21.499219 71.4389922,22.0692908 71.4389922,22.7700719 L71.4389922,47.2299281 C71.4389922,47.9307092 71.9836192,48.500781 72.6528787,48.500781 L102.347121,48.500781 C103.016381,48.500781 103.561008,47.9307092 103.561008,47.2299281 L103.561008,35.4081225 C103.561008,34.7180881 104.107098,34.158513 104.780504,34.158513 C105.45391,34.158513 106,34.7180881 106,35.4081225 L106,47.2299281 C106,49.3087785 104.361241,51 102.347121,51 Z" id="Path" fill="#5F6089"></path>
                <path d="M104.780504,30 L70.2194961,30 C69.5460904,30 69,29.3283 69,28.5 C69,27.6717 69.5460904,27 70.2194961,27 L104.780504,27 C105.45391,27 106,27.6717 106,28.5 C106,29.3283 105.45391,30 104.780504,30 Z" id="Path" fill="#5F6089"></path>
                <path d="M87.7418427,44 L75.2581573,44 C74.5631055,44 74,43.3284071 74,42.5 C74,41.6715929 74.5633578,41 75.2581573,41 L87.7418427,41 C88.4368945,41 89,41.6715929 89,42.5 C89,43.3284071 88.4366422,44 87.7418427,44 Z" id="Path" fill="#B7C5FF"></path>
                <path d="M81.773148,39 L76.226852,39 C75.5490944,39 75,38.3284071 75,37.5 C75,36.6715929 75.5493404,36 76.226852,36 L81.773148,36 C82.4509056,36 83,36.6715929 83,37.5 C83,38.3284071 82.4506596,39 81.773148,39 Z" id="Path" fill="#B7C5FF"></path>
                <path d="M23.7590914,74 L9.24090862,74 C8.55547094,74 8,73.3283049 8,72.5 C8,71.6716951 8.55547094,71 9.24090862,71 L23.7590914,71 C24.4445291,71 25,71.6716951 25,72.5 C25,73.3283049 24.4445291,74 23.7590914,74 Z" id="Path" fill="#FFFFFF"></path>
                <path d="M19.8772499,68 L12.1227501,68 C11.5025794,68 11,67.3283049 11,66.5 C11,65.6716951 11.5025794,65 12.1227501,65 L19.8772499,65 C20.4974206,65 21,65.6716951 21,66.5 C21,67.3283049 20.4974206,68 19.8772499,68 Z" id="Path" fill="#CEFCFF"></path>
                <path d="M23.7590914,79 L9.24090862,79 C8.55547094,79 8,78.3283049 8,77.5 C8,76.6716951 8.55547094,76 9.24090862,76 L23.7590914,76 C24.4445291,76 25,76.6716951 25,77.5 C25,78.3286026 24.4445291,79 23.7590914,79 Z" id="Path" fill="#FFFFFF"></path>
                <path d="M23.7590914,83 L9.24090862,83 C8.55547094,83 8,82.3283049 8,81.5 C8,80.6716951 8.55547094,80 9.24090862,80 L23.7590914,80 C24.4445291,80 25,80.6716951 25,81.5 C25,82.3283049 24.4445291,83 23.7590914,83 Z" id="Path" fill="#FFFFFF"></path>
                <path d="M104,84 C103.66567,84 103.345114,83.8672509 103.109706,83.6313353 L100.36194,80.8741804 C99.8793533,80.3899195 99.8793533,79.6100805 100.36194,79.1258196 L103.109706,76.3686647 C103.344864,76.1327491 103.66542,76 104,76 C104.33458,76 104.654886,76.1327491 104.890294,76.3686647 L107.63806,79.1258196 C108.120647,79.6100805 108.120647,80.3899195 107.63806,80.8741804 L104.890294,83.6313353 C104.654886,83.8670023 104.33433,84 104,84 Z M103.013539,79.9998757 L103.99975,80.989528 L104.98621,79.9998757 L103.99975,79.0102234 L103.013539,79.9998757 Z" id="Shape" fill="#6583FE"></path>
                <path d="M92,91 C91.6656701,91 91.3451142,90.8672509 91.1097059,90.6313353 L88.3619402,87.8741804 C87.8793533,87.3899195 87.8793533,86.6100805 88.3619402,86.1258196 L91.1097059,83.3686647 C91.3448637,83.1327491 91.6654197,83 92,83 C92.3343299,83 92.6548858,83.1327491 92.8902941,83.3686647 L95.6380598,86.1258196 C96.1206467,86.6100805 96.1206467,87.3899195 95.6380598,87.8741804 L92.8902941,90.6313353 C92.6548858,90.8672509 92.3343299,91 92,91 Z M91.0135391,86.9998757 L92,87.989528 L92.9862105,86.9998757 L92,86.0102234 L91.0135391,86.9998757 Z" id="Shape" fill="#FF7EB8"></path>
                <path d="M13,20 C12.3075428,20 11.7460029,19.4425842 11.7460029,18.7552125 C11.7460029,17.9222008 11.07687,17.2447875 10.2539971,17.2447875 C9.56153991,17.2447875 9,16.6873716 9,16 C9,15.3126284 9.56153991,14.7552125 10.2539971,14.7552125 C11.0766192,14.7552125 11.7460029,14.0775503 11.7460029,13.2447875 C11.7460029,12.5574158 12.3075428,12 13,12 C13.6924572,12 14.2539971,12.5574158 14.2539971,13.2447875 C14.2539971,14.0777992 14.92313,14.7552125 15.7460029,14.7552125 C16.4384601,14.7552125 17,15.3126284 17,16 C17,16.6873716 16.4384601,17.2447875 15.7460029,17.2447875 C14.9233808,17.2447875 14.2539971,17.9224497 14.2539971,18.7552125 C14.2539971,19.4425842 13.6924572,20 13,20 Z" id="Path" fill="#97E7EC"></path>
                <path d="M18,8 C17.3075428,8 16.7460029,7.44258418 16.7460029,6.75521255 C16.7460029,5.92220078 16.07687,5.24478745 15.2539971,5.24478745 C14.5615399,5.24478745 14,4.68737163 14,4 C14,3.31262837 14.5615399,2.75521255 15.2539971,2.75521255 C16.0766192,2.75521255 16.7460029,2.07755026 16.7460029,1.24478745 C16.7460029,0.557415821 17.3075428,0 18,0 C18.6924572,0 19.2539971,0.557415821 19.2539971,1.24478745 C19.2539971,2.07779922 19.92313,2.75521255 20.7460029,2.75521255 C21.4384601,2.75521255 22,3.31262837 22,4 C22,4.68737163 21.4384601,5.24478745 20.7460029,5.24478745 C19.9233808,5.24478745 19.2539971,5.92244974 19.2539971,6.75521255 C19.2539971,7.44283314 18.6924572,8 18,8 Z" id="Path" fill="#6583FE"></path>
            </g>
        </g>
    </g>
</svg>