<?xml version="1.0" encoding="UTF-8"?>
<svg width="108px" height="117px" viewBox="0 0 108 117" version="1.1" xmlns="http://www.w3.org/2000/svg" xmlns:xlink="http://www.w3.org/1999/xlink">
    <title>006-web development</title>
    <g id="Page-1" stroke="none" stroke-width="1" fill="none" fill-rule="evenodd">
        <g id="Desktop-HD-Copy-4" transform="translate(-763.000000, -799.000000)" fill-rule="nonzero">
            <g id="006-web-development" transform="translate(763.000000, 799.000000)">
                <path d="M68.9998439,8 C68.6687242,8 68.351089,7.86839394 68.1171077,7.63439988 L65.3657674,4.88290932 C64.8780775,4.39519276 64.8780775,3.60455752 65.3657674,3.11709068 L68.1171077,0.365600125 C68.3513387,0.131356329 68.6687242,0 68.9998439,0 C69.3309637,0 69.6485989,0.131606056 69.8825802,0.365600125 L72.6341701,3.11709068 C72.8684011,3.35133448 73,3.66873732 73,4.00012486 C73,4.33151241 72.8686508,4.64891525 72.6341701,4.88315904 L69.8825802,7.6346496 C69.6485989,7.86839394 69.3309637,8 68.9998439,8 L68.9998439,8 Z M68.0144756,3.99987514 L68.9998439,4.98554706 L69.985462,3.99987514 L68.9998439,3.01420322 L68.0144756,3.99987514 Z" id="Shape" fill="#FF7EB8"></path>
                <path d="M86.9998439,106 C86.6687242,106 86.351089,105.868394 86.1171077,105.6344 L83.3657674,102.882909 C82.8780775,102.395193 82.8780775,101.604558 83.3657674,101.117091 L86.1171077,98.3656001 C86.6042982,97.8781333 87.3948902,97.8781333 87.8825802,98.3656001 L90.6341701,101.117091 C90.8684011,101.351334 91,101.668737 91,102.000125 C91,102.331512 90.8686508,102.648915 90.6341701,102.883159 L87.8825802,105.63465 C87.6483492,105.868394 87.3309637,106 86.9998439,106 L86.9998439,106 Z M86.0144756,101.999875 L86.9998439,102.985547 L87.985462,101.999875 L86.9998439,101.014203 L86.0144756,101.999875 Z" id="Shape" fill="#6583FE"></path>
                <path d="M15.0001249,117 C14.3104223,117 13.7515685,116.440879 13.7515685,115.751405 C13.7515685,114.922837 13.0773481,114.248595 12.2485564,114.248595 C11.5588538,114.248595 11,113.689474 11,113 C11,112.310526 11.5588538,111.751405 12.2485564,111.751405 C13.0770984,111.751405 13.7515685,111.077163 13.7515685,110.248595 C13.7515685,109.559121 14.3104223,109 15.0001249,109 C15.6898274,109 16.2486812,109.559121 16.2486812,110.248595 C16.2486812,111.077163 16.9226519,111.751405 17.7514436,111.751405 C18.4411462,111.751405 19,112.310526 19,113 C19,113.689474 18.4411462,114.248595 17.7514436,114.248595 C16.9229016,114.248595 16.2486812,114.922837 16.2486812,115.751405 C16.2486812,116.440879 15.6895777,117 15.0001249,117 Z" id="Path" fill="#97E7EC"></path>
                <path d="M25.9998751,104 C25.3101726,104 24.7513188,103.440879 24.7513188,102.751405 C24.7513188,101.922837 24.0773481,101.248595 23.2485564,101.248595 C22.5588538,101.248595 22,100.689474 22,100 C22,99.3105257 22.5588538,98.7514047 23.2485564,98.7514047 C24.0770984,98.7514047 24.7513188,98.0771632 24.7513188,97.2485953 C24.7513188,96.559121 25.3101726,96 25.9998751,96 C26.6895777,96 27.2484315,96.559121 27.2484315,97.2485953 C27.2484315,98.0771632 27.9226519,98.7514047 28.7514436,98.7514047 C29.4411462,98.7514047 30,99.3105257 30,100 C30,100.689474 29.4411462,101.248595 28.7514436,101.248595 C27.9229016,101.248595 27.2484315,101.922837 27.2484315,102.751405 C27.2484315,103.441129 26.689328,104 25.9998751,104 Z" id="Path" fill="#6583FE"></path>
                <polygon id="Path" fill="#9FB0FE" points="69 111 39 111 42.909858 95.3558462 44.9994181 87 63.0005819 87 65.090142 95.3558462"></polygon>
                <polygon id="Path" fill="#8399FE" points="65 94 43 94 45.0725759 86 62.9274241 86"></polygon>
                <path d="M70.6225626,112 L39.3771619,112 C38.9523955,112 38.5515944,111.80765 38.2907294,111.478681 C38.0298644,111.149711 37.9378593,110.720915 38.0419849,110.316467 L42.9595793,91.177805 C43.1457933,90.4533148 43.8945062,90.0150496 44.631925,90.197119 C45.3693437,90.38 45.8164228,91.1153116 45.6302087,91.8395313 L41.1453693,109.294659 L68.8549062,109.294659 L64.3301244,91.6837037 C64.1439103,90.959484 64.5909894,90.2239019 65.3284081,90.0412914 C66.0669288,89.8589514 66.8148152,90.2974872 67.0007538,91.0219774 L71.9580151,110.316467 C72.0621407,110.720915 71.9701356,111.149711 71.7092706,111.478681 C71.4484056,111.80765 71.0473291,112 70.6225626,112 L70.6225626,112 Z" id="Path" fill="#5F6089"></path>
                <path d="M107,20.9577836 L107,88.0422164 C107,90.2269129 105.2192,92 103.025,92 L4.975,92 C2.7808,92 1,90.2269129 1,88.0422164 L1,20.9577836 C1,18.7730871 2.7808,17 4.975,17 L103.025,17 C105.2192,17 107,18.7730871 107,20.9577836 Z" id="Path" fill="#FFFFFF"></path>
                <path d="M102.138614,17 L80,17 L80,92 L102.138614,92 C104.270099,92 106,90.2269129 106,88.0422164 L106,20.9577836 C106,18.7730871 104.270099,17 102.138614,17 Z" id="Path" fill="#FFC4DF"></path>
                <path d="M101.100059,42.4241327 L99.1957034,35.9354047 C99.0341377,35.3828992 98.5123602,35 97.9217187,35 L91.4590936,35 C90.868452,35 90.3466745,35.3828992 90.1851089,35.9354047 L88.2807534,42.4241327 C85.6109476,43.0588716 83.0974102,44.0790795 80.8090053,45.4256512 L74.7330783,42.1440252 C74.216598,41.8639178 73.5703355,41.9512907 73.151854,42.3573181 L68.58299,46.7927812 C68.1645085,47.1988086 68.0744556,47.8232683 68.3605062,48.3269478 L71.7454385,54.2220535 C70.3575633,56.4423549 69.3034138,58.8810887 68.6492054,61.4688705 L61.9614479,63.3191216 C61.3919953,63.475879 61,63.9795585 61,64.5551922 L61,70.8254877 C61,71.3985516 61.3919953,71.902231 61.9614479,72.0615582 L68.6492054,73.9092396 C69.0976162,75.6849667 69.7364626,77.3884827 70.5405827,79 L89.8378752,79 C85.2737787,77.1546315 82.0644497,72.7877818 82.0644497,67.6903399 C82.0644497,60.9240743 87.716598,55.4401355 94.6904061,55.4401355 C99.6459682,55.4401355 103.93143,58.2078028 106,62.2372386 L106,44.0944983 C104.442613,43.390375 102.803119,42.83016 101.100059,42.4241327 L101.100059,42.4241327 Z" id="Path" fill="#FF7EB8"></path>
                <path d="M101.100059,42.4241327 L99.1957034,35.9354047 C99.0341377,35.3828992 98.5123602,35 97.9217187,35 L91.4590936,35 C90.868452,35 90.3466745,35.3828992 90.1851089,35.9354047 L88.2807534,42.4241327 C85.6109476,43.0588716 83.0974102,44.0790795 80.8090053,45.4256512 L74.7330783,42.1440252 C74.216598,41.8639178 73.5703355,41.9512907 73.151854,42.3573181 L68.58299,46.7927812 C68.1645085,47.1988086 68.0744556,47.8232683 68.3605062,48.3269478 L71.7454385,54.2220535 C70.3575633,56.4423549 69.3034138,58.8810887 68.6492054,61.4688705 L61.9614479,63.3191216 C61.3919953,63.475879 61,63.9795585 61,64.5551922 L61,70.8254877 C61,71.3985516 61.3919953,71.902231 61.9614479,72.0615582 L68.6492054,73.9092396 C69.0976162,75.6849667 69.7364626,77.3884827 70.5405827,79 L89.8378752,79 C85.2737787,77.1546315 82.0644497,72.7877818 82.0644497,67.6903399 C82.0644497,60.9240743 87.716598,55.4401355 94.6904061,55.4401355 C99.6459682,55.4401355 103.93143,58.2078028 106,62.2372386 L106,44.0944983 C104.442613,43.390375 102.803119,42.83016 101.100059,42.4241327 L101.100059,42.4241327 Z" id="Path" fill="#FF5BA8"></path>
                <path d="M107,30 L107,20.3594694 C107,17.9518798 105.22026,16 103.025,16 L4.975,16 C2.77974,16 1,17.9518798 1,20.3594694 L1,30 L107,30 Z" id="Path" fill="#B7C5FF"></path>
                <path d="M106.682927,29 L1.31707317,29 C0.589521951,29 0,28.5522 0,28 C0,27.4478 0.589521951,27 1.31707317,27 L106.682927,27 C107.410478,27 108,27.4478 108,28 C108,28.5522 107.410478,29 106.682927,29 Z" id="Path" fill="#5F6089"></path>
                <path d="M1,78 L1,87.8325064 C1,90.1340742 2.77974,92 4.975,92 L103.025,92 C105.22026,92 107,90.1340742 107,87.8325064 L107,78 L1,78 Z" id="Path" fill="#B7C5FF"></path>
                <g id="Group" transform="translate(0.000000, 15.000000)" fill="#5F6089">
                    <path d="M106.537259,64.3621359 L9.73527805,64.3621359 C9.00772683,64.3621359 8.41820488,63.7719647 8.41820488,63.0442011 C8.41820488,62.3164375 9.00772683,61.7262663 9.73527805,61.7262663 L106.536995,61.7262663 C107.264546,61.7262663 107.854068,62.3164375 107.854068,63.0442011 C107.854068,63.7719647 107.26481,64.3621359 106.537259,64.3621359 Z" id="Path"></path>
                    <path d="M74.0021268,96.8070543 L33.9978732,96.8070543 C33.270322,96.8070543 32.6808,96.2168832 32.6808,95.4891196 C32.6808,94.761356 33.270322,94.1711848 33.9978732,94.1711848 L74.0018634,94.1711848 C74.7294146,94.1711848 75.3189366,94.761356 75.3189366,95.4891196 C75.3189366,96.2168832 74.7294146,96.8070543 74.0021268,96.8070543 L74.0021268,96.8070543 Z" id="Path"></path>
                    <path d="M11.3484293,9.08821467 C10.620878,9.08821467 10.0313561,8.49804348 10.0313561,7.77027989 L10.0313561,7.7317962 C10.0313561,7.00403261 10.620878,6.41386141 11.3484293,6.41386141 C12.0759805,6.41386141 12.6655024,7.00403261 12.6655024,7.7317962 L12.6655024,7.77027989 C12.6655024,8.49804348 12.0759805,9.08821467 11.3484293,9.08821467 Z" id="Path"></path>
                    <path d="M16.4389171,9.08821467 C15.7113659,9.08821467 15.1218439,8.49804348 15.1218439,7.77027989 L15.1218439,7.7317962 C15.1218439,7.00403261 15.7113659,6.41386141 16.4389171,6.41386141 C17.1664683,6.41386141 17.7559902,7.00403261 17.7559902,7.7317962 L17.7559902,7.77027989 C17.7559902,8.49804348 17.1664683,9.08821467 16.4389171,9.08821467 Z" id="Path"></path>
                    <path d="M21.5291415,9.08821467 C20.8015902,9.08821467 20.2120683,8.49804348 20.2120683,7.77027989 L20.2120683,7.7317962 C20.2120683,7.00403261 20.8015902,6.41386141 21.5291415,6.41386141 C22.2566927,6.41386141 22.8462146,7.00403261 22.8462146,7.7317962 L22.8462146,7.77027989 C22.8462146,8.49804348 22.2566927,9.08821467 21.5291415,9.08821467 Z" id="Path"></path>
                    <path d="M102.731707,77.644019 L5.26829268,77.644019 C2.3633561,77.644019 0,75.2791168 0,72.3722799 L0,5.35608696 C0,2.44925 2.3633561,0.0843478261 5.26829268,0.0843478261 L102.731707,0.0843478261 C105.636644,0.0843478261 108,2.44925 108,5.35608696 L108,14.0995299 C108,14.8272935 107.410478,15.4174647 106.682927,15.4174647 C105.955376,15.4174647 105.365854,14.8272935 105.365854,14.0995299 L105.365854,5.35608696 C105.365854,3.90266848 104.184176,2.72021739 102.731707,2.72021739 L5.26829268,2.72021739 C3.81582439,2.72021739 2.63414634,3.90266848 2.63414634,5.35608696 L2.63414634,72.3725435 C2.63414634,73.825962 3.81582439,75.008413 5.26829268,75.008413 L102.731707,75.008413 C104.184176,75.008413 105.365854,73.825962 105.365854,72.3725435 L105.365854,21.3589783 C105.365854,20.6312147 105.955376,20.0410435 106.682927,20.0410435 C107.410478,20.0410435 108,20.6312147 108,21.3589783 L108,72.3725435 C108,75.2791168 105.636644,77.644019 102.731707,77.644019 Z" id="Path"></path>
                </g>
                <path d="M55.696704,63 L12.303296,63 C11.5834644,63 11,62.5523163 11,62 C11,61.4476837 11.5834644,61 12.303296,61 L55.696704,61 C56.4165356,61 57,61.4476837 57,62 C57,62.5523163 56.4165356,63 55.696704,63 Z" id="Path" fill="#B7C5FF"></path>
                <path d="M39.7132359,53 L12.2867641,53 C11.5760633,53 11,52.5523163 11,52 C11,51.4476837 11.5760633,51 12.2867641,51 L39.7132359,51 C40.4239367,51 41,51.4476837 41,52 C41,52.5523163 40.4239367,53 39.7132359,53 Z" id="Path" fill="#FFA8CF"></path>
                <path d="M55.696704,68 L12.303296,68 C11.5834644,68 11,67.5523163 11,67 C11,66.4476837 11.5834644,66 12.303296,66 L55.696704,66 C56.4165356,66 57,66.4476837 57,67 C57,67.5521166 56.4165356,68 55.696704,68 Z" id="Path" fill="#B7C5FF"></path>
                <path d="M14.8654723,44 C14.5752456,44 14.2845651,43.8710852 14.0633212,43.6132555 L11.3323765,40.4339722 C10.8892078,39.9180487 10.8892078,39.0816872 11.3323765,38.5660278 L14.0633212,35.3867445 C14.506036,34.8710852 15.2249087,34.8710852 15.6676235,35.3867445 C16.1107922,35.9026681 16.1107922,36.7390296 15.6676235,37.254689 L13.7390569,39.5001321 L15.6676235,41.7455752 C16.1107922,42.2614987 16.1107922,43.0978602 15.6676235,43.6135196 C15.4463795,43.8710852 15.155699,44 14.8654723,44 L14.8654723,44 Z" id="Path" fill="#4369FD"></path>
                <path d="M27.1345277,44 C26.844301,44 26.5536205,43.8710889 26.3323765,43.6132668 C25.8892078,43.0973584 25.8892078,42.2610214 26.3323765,41.7453772 L28.2609431,39.5 L26.3323765,37.2546228 C25.8892078,36.7387144 25.8892078,35.9023775 26.3323765,35.3867332 C26.7750913,34.8710889 27.493964,34.8710889 27.9366788,35.3867332 L30.6676235,38.5659231 C31.1107922,39.0818315 31.1107922,39.9181685 30.6676235,40.4338127 L27.9366788,43.6130026 C27.715208,43.8710889 27.4247544,44 27.1345277,44 Z" id="Path" fill="#4369FD"></path>
                <path d="M19.0587532,44 C18.8822264,44 18.7033686,43.9450582 18.538921,43.8290993 C18.0292609,43.4703928 17.8493435,42.6647559 18.1371266,42.0294914 L21.0175011,35.6715634 C21.3050723,35.036563 21.9516307,34.8123054 22.461079,35.1707478 C22.9707391,35.5294543 23.1506565,36.3350912 22.8628734,36.9703558 L19.9824989,43.3282837 C19.7875354,43.7583089 19.4283363,44 19.0587532,44 L19.0587532,44 Z" id="Path" fill="#4369FD"></path>
                <path d="M86.3181818,69 L82.6818182,69 C82.3052273,69 82,68.638471 82,68.1924147 L82,51.8075853 C82,51.361529 82.3052273,51 82.6818182,51 L86.3181818,51 C86.6947727,51 87,51.361529 87,51.8075853 L87,68.1924147 C87,68.638471 86.6947727,69 86.3181818,69 Z" id="Path" fill="#97E7EC"></path>
                <path d="M78.3181818,69 L74.6818182,69 C74.3052273,69 74,68.6308496 74,68.17539 L74,57.82461 C74,57.3691504 74.3052273,57 74.6818182,57 L78.3181818,57 C78.6947727,57 79,57.3691504 79,57.82461 L79,68.17539 C79,68.6308496 78.6947727,69 78.3181818,69 Z" id="Path" fill="#97E7EC"></path>
                <path d="M94.3181818,68 L90.6818182,68 C90.3052273,68 90,67.6337562 90,67.1818829 L90,45.8181171 C90,45.3662438 90.3052273,45 90.6818182,45 L94.3181818,45 C94.6947727,45 95,45.3662438 95,45.8181171 L95,67.1818829 C95,67.6337562 94.6947727,68 94.3181818,68 Z" id="Path" fill="#97E7EC"></path>
                <g id="Group" transform="translate(56.000000, 35.000000)" fill="#6583FE">
                    <ellipse id="Oval" cx="11.2311522" cy="1.49525" rx="1.57978261" ry="1.3975"></ellipse>
                    <ellipse id="Oval" cx="6.45195652" cy="1.49525" rx="1.57978261" ry="1.3975"></ellipse>
                    <ellipse id="Oval" cx="1.67304348" cy="1.49525" rx="1.57978261" ry="1.3975"></ellipse>
                </g>
            </g>
        </g>
    </g>
</svg>