<?xml version="1.0" encoding="UTF-8"?>
<svg width="54px" height="59px" viewBox="0 0 54 59" version="1.1" xmlns="http://www.w3.org/2000/svg" xmlns:xlink="http://www.w3.org/1999/xlink">
    <title>041-message</title>
    <g id="Page-1" stroke="none" stroke-width="1" fill="none" fill-rule="evenodd">
        <g id="Desktop-HD-Copy-4" transform="translate(-1196.000000, -2438.000000)" fill-rule="nonzero">
            <g id="041-message" transform="translate(1196.000000, 2438.000000)">
                <g id="Group" transform="translate(2.000000, 0.000000)">
                    <g transform="translate(0.175528, 6.801034)" id="Path">
                        <polygon fill="#97E7EC" points="50.2027947 0.017622739 14.7652249 17.8276744 13.8827966 22.0898191 16.2195614 38.673385"></polygon>
                        <polygon fill="#56A5AA" points="19.3768176 27.3250517 16.2195614 38.673385 22.7157092 31.2840568"></polygon>
                        <polygon fill="#FF7EB8" points="50.2032123 0.0174806202 31.6248949 41.8459044 19.3766784 27.3256202"></polygon>
                        <path d="M29.1028758,30.6071447 C28.8133725,30.8643798 28.3735501,30.8345349 28.1202348,30.5389276 L22.7880851,24.3041731 L23.8389264,23.3732946 L29.1682924,29.6037855 C29.4216078,29.8993928 29.3923791,30.3484884 29.1028758,30.6071447 Z" fill="#FFFFFF"></path>
                        <path d="M31.269975,28.2380233 C30.9804717,28.4966796 30.5406493,28.4654134 30.287334,28.1698062 L25.1737036,22.1908656 L26.2245449,21.2585659 L31.3353916,27.2346641 C31.588707,27.5302713 31.5594783,27.9793669 31.269975,28.2380233 L31.269975,28.2380233 Z" fill="#FFFFFF"></path>
                        <path d="M33.4370742,25.8689018 C33.1475709,26.1275581 32.7077486,26.0977132 32.4544332,25.8021059 L27.5593221,20.0775581 L28.6101634,19.1452584 L33.5038826,24.8669638 C33.7558062,25.1625711 33.7265775,25.6116667 33.4370742,25.8689018 Z" fill="#FFFFFF"></path>
                        <path d="M35.6041734,23.5012016 C35.3146701,23.7584367 34.8748478,23.7285917 34.6215324,23.4329845 L29.9449406,17.9642506 L30.9957819,17.0333721 L35.6709818,22.4978424 C35.9229054,22.7934496 35.8936767,23.2425452 35.6041734,23.5012016 L35.6041734,23.5012016 Z" fill="#FFFFFF"></path>
                        <path d="M37.7712726,21.1320801 C37.4817693,21.3907364 37.041947,21.3594703 36.7900234,21.063863 L32.3305592,15.8509432 L33.3814005,14.9186434 L37.838081,20.1287209 C38.0900046,20.4243282 38.0607759,20.8734238 37.7712726,21.1320801 L37.7712726,21.1320801 Z" fill="#FFFFFF"></path>
                        <path d="M39.0573353,13.8882817 C38.767832,14.146938 38.3280097,14.1156718 38.0746943,13.8200646 L36.5868144,12.0805297 L37.6376557,11.14823 L39.1241438,12.8863437 C39.3760673,13.1819509 39.3468386,13.6296253 39.0573353,13.8882817 Z" fill="#FFFFFF"></path>
                        <polygon fill="#FF7EB8" points="13.8827966 21.9950258 50.2027947 0.017622739 0.0804485126 12.6291085"></polygon>
                    </g>
                    <g transform="translate(5.186162, 0.263566)">
                        <path d="M16.5181117,17.857093 L8.87230179,17.857093 C4.04427756,17.857093 0.130415668,13.8607106 0.130415668,8.93089147 C0.130415668,4.00107235 4.04427756,0.00468992248 8.87230179,0.00468992248 C13.700326,0.00468992248 17.6141879,4.00107235 17.6141879,8.93089147 L17.6141879,16.737907 C17.6141879,17.356124 17.123285,17.857093 16.5181117,17.857093 Z" id="Path" fill="#97E7EC"></path>
                        <g transform="translate(3.479607, 7.532300)" fill="#FFFFFF" id="Oval">
                            <ellipse cx="9.39159833" cy="1.39859173" rx="1.29858931" ry="1.32596899"></ellipse>
                            <ellipse cx="5.39255566" cy="1.39859173" rx="1.29858931" ry="1.32596899"></ellipse>
                            <ellipse cx="1.39365217" cy="1.39859173" rx="1.29858931" ry="1.32596899"></ellipse>
                        </g>
                    </g>
                </g>
                <g id="Group" fill="#5F6089">
                    <path d="M52.9553974,7.10866114 C52.9541584,7.0867109 52.9511299,7.06504028 52.947826,7.04336967 C52.9452104,7.02547393 52.9428701,7.0075782 52.9388779,6.98968246 C52.9333714,6.96563507 52.9255247,6.94228673 52.9175403,6.91893839 C52.9134104,6.90691469 52.9114831,6.89475118 52.9066649,6.8828673 C52.905426,6.87979147 52.9034987,6.87713507 52.9021221,6.87405924 C52.8915221,6.84861374 52.8780312,6.82442654 52.8644026,6.80037915 C52.8579325,6.78891469 52.8527013,6.77661137 52.8455429,6.76556635 C52.8305377,6.74221801 52.8125039,6.7206872 52.7946078,6.69901659 C52.7866234,6.68936967 52.7798779,6.67860427 52.7714805,6.66951659 C52.7559247,6.65273934 52.7377532,6.63819905 52.7204078,6.62281991 C52.7074675,6.61135545 52.6956286,6.59849289 52.6818623,6.58800711 C52.6814494,6.58772749 52.681174,6.58744787 52.6808987,6.58716825 C52.6623143,6.57304739 52.6422156,6.56256161 52.6228052,6.55067773 C52.6084883,6.54200948 52.5952727,6.53166351 52.5804052,6.52397393 C52.5448883,6.50565877 52.5081325,6.49055924 52.4706883,6.47895498 C52.4610519,6.47601896 52.4507273,6.47504028 52.4409532,6.47238389 C52.4127325,6.46497393 52.3845117,6.4578436 52.3557403,6.45406872 C52.3404597,6.45211137 52.3247662,6.45281043 52.3093481,6.45183175 C52.2851195,6.45043365 52.2610286,6.4484763 52.2368,6.44959479 C52.2219325,6.45029384 52.2072026,6.45336967 52.1921974,6.45504739 C52.1665922,6.45798341 52.1411247,6.46105924 52.1160701,6.46679147 C52.1122156,6.46763033 52.1084987,6.46763033 52.1046442,6.468609 L25.6810468,13.0816422 L25.6810468,9.48473934 C25.6810468,4.25722749 21.4936338,0.00433412322 16.346439,0.00433412322 C11.1992442,0.00433412322 7.01183117,4.25722749 7.01183117,9.48473934 C7.01183117,12.4716493 8.38047013,15.138673 10.5127221,16.8776351 L2.53023377,18.8753863 C2.2650961,18.9417962 2.0636961,19.1608791 2.01689091,19.4340687 C1.97008571,19.7072583 2.08654805,19.9828246 2.31396623,20.1361967 L11.8374468,26.563981 L4.74439481,34.5057725 C4.48903117,34.7918246 4.51023117,35.2339052 4.79175065,35.4932536 C4.92363117,35.6147488 5.0891013,35.6745877 5.25402078,35.6745877 C5.44137922,35.6745877 5.62818701,35.5972725 5.76405974,35.4451588 L12.9969766,27.3467796 L15.6941948,29.1672512 L17.9760857,45.2748104 C17.9774623,45.2841777 17.9807662,45.2925664 17.9824182,45.3017938 C17.9866857,45.325282 17.9920545,45.3482109 17.9986623,45.371 C18.0036182,45.3884763 18.0088494,45.405673 18.0151818,45.4224502 C18.0227532,45.4428626 18.031839,45.4625758 18.0412,45.4821493 C18.0493221,45.4990664 18.0573065,45.5157038 18.0666675,45.531782 C18.0774052,45.550237 18.0897948,45.5675735 18.1023221,45.5850498 C18.1129221,45.5998697 18.1231091,45.6148294 18.1348104,45.6288104 C18.1487143,45.6454479 18.1644078,45.6605474 18.1799636,45.6757867 C18.1927662,45.6883697 18.2051558,45.701372 18.2189221,45.7129763 C18.2346156,45.7262583 18.251961,45.7377227 18.2690312,45.7496066 C18.2851377,45.7609313 18.3008312,45.7725355 18.3179013,45.7824621 C18.3214805,45.7845592 18.3245091,45.7873555 18.328226,45.7893128 C18.3553455,45.8042725 18.3830156,45.8169953 18.4110987,45.8279005 C18.4172935,45.8302773 18.4237636,45.8318152 18.4299584,45.8340521 C18.4583169,45.8441185 18.4869506,45.8520877 18.5158597,45.8583791 C18.5265974,45.8607559 18.5373351,45.8627133 18.5483481,45.8645308 C18.5823506,45.8701232 18.6163532,45.8736185 18.6504935,45.8740379 C18.6524208,45.8740379 18.6542104,45.8745972 18.6562753,45.8745972 C18.6889013,45.8745972 18.7219403,45.8720806 18.7551169,45.867327 C18.763239,45.8660687 18.7703974,45.8628531 18.7783818,45.861455 C18.7997195,45.8575403 18.8203688,45.8515284 18.8412935,45.8455166 C18.8666234,45.8383863 18.8915403,45.8309763 18.9153558,45.8210498 C18.9339403,45.8133602 18.9516987,45.8041327 18.9695948,45.7947654 C18.993961,45.7820427 19.0175013,45.7686209 19.0400779,45.7532417 C19.0561844,45.7421967 19.0716026,45.7303128 19.0868831,45.7178697 C19.1093221,45.6995545 19.1301091,45.679981 19.1499325,45.6590095 C19.1577792,45.6509005 19.1670026,45.6448886 19.1744364,45.6362204 L25.004574,38.8851943 L30.1765481,44.9835853 L19.7054,56.7076682 C19.4500364,56.9937204 19.4712364,57.4358009 19.7527558,57.6951493 C19.8846364,57.8166445 20.0501065,57.8764834 20.215026,57.8764834 C20.4023844,57.8764834 20.5891922,57.7991682 20.7250649,57.6470545 L31.0816779,46.0510379 L33.3725169,48.7523152 C33.5042597,48.9076445 33.6953351,48.9951659 33.8939818,48.9951659 C33.9264701,48.9951659 33.9592338,48.9927891 33.9918597,48.9880355 C34.2243714,48.9542014 34.4238442,48.8020877 34.5208961,48.5848223 L37.0933922,42.8239336 C37.2504649,42.4721706 37.0969714,42.0579123 36.7507506,41.8985284 C36.4043922,41.7390047 35.9966364,41.8948934 35.8395636,42.2463768 L33.7121299,47.0105569 L22.748426,34.082846 L50.3409143,9.77079147 L37.7503169,37.9670592 C37.5932442,38.3188223 37.7467377,38.7330806 38.0929584,38.8924645 C38.4390416,39.0517085 38.8470727,38.8959597 39.0041455,38.5446161 L52.895239,7.43595735 C52.9003325,7.4246327 52.9028104,7.41288863 52.9072156,7.40142417 C52.914374,7.383109 52.9209818,7.36479384 52.9264883,7.34591943 C52.9325455,7.3253673 52.9370883,7.30495498 52.9412182,7.28412322 C52.9449351,7.26566825 52.948239,7.24735308 52.9504416,7.22847867 C52.9529195,7.20708768 52.9538831,7.18583649 52.9542961,7.16430569 C52.9559094,7.14599052 52.9559094,7.12753555 52.9553974,7.10866114 Z M12.0969403,17.9213199 C13.3726571,18.5868175 14.8164597,18.9651445 16.3465766,18.9651445 L17.6900234,18.9651445 C18.0701091,18.9651445 18.3783351,18.6522488 18.3783351,18.2660924 C18.3783351,17.879936 18.0701091,17.5670403 17.6900234,17.5670403 L16.3465766,17.5670403 C11.9585896,17.5670403 8.38859221,13.9414763 8.38859221,9.48501896 C8.38859221,5.0284218 11.9585896,1.40271801 16.3465766,1.40271801 C20.7345636,1.40271801 24.304561,5.0284218 24.304561,9.48501896 L24.304561,17.1652251 C24.304561,17.3868246 24.1271143,17.5670403 23.9089195,17.5670403 L22.3238753,17.5670403 C21.9437896,17.5670403 21.6355636,17.879936 21.6355636,18.2660924 C21.6355636,18.6522488 21.9437896,18.9651445 22.3238753,18.9651445 L23.9089195,18.9651445 C24.8861844,18.9651445 25.6811844,18.1577393 25.6811844,17.1652251 L25.6811844,14.5218294 L47.9106234,8.95849289 L16.3675013,27.9429313 L4.38041558,19.8525213 L12.0969403,17.9213199 Z M24.0982052,37.8156445 L20.1547299,42.3819929 L22.0932909,35.45159 L24.0982052,37.8156445 Z M21.336974,33.4769076 C21.3366987,33.4771872 21.3364234,33.4774668 21.3361481,33.4777464 L21.3294026,33.4836185 C21.3189403,33.492846 21.3112312,33.5040308 21.3014571,33.5138175 C21.2798442,33.5353483 21.2579558,33.5564597 21.2390961,33.5809265 C21.2250545,33.5991019 21.2144545,33.618955 21.2023403,33.638109 C21.1903636,33.657263 21.1772857,33.6752986 21.1670987,33.6957109 C21.1530571,33.7238128 21.1432831,33.753173 21.1332338,33.782673 C21.1288286,33.7956754 21.1222208,33.8071398 21.1185039,33.8205616 L21.1163013,33.8286706 C21.1163013,33.8288104 21.1161636,33.82909 21.1161636,33.8292299 L18.879013,41.8270853 L17.0814182,29.13859 L46.0454364,11.7061872 L21.336974,33.4769076 Z" id="Shape"></path>
                    <path d="M21.8171403,49.3164502 C21.5354831,49.0569621 21.1001948,49.0784929 20.8448312,49.364545 L13.3149766,57.7955332 C13.059613,58.0815853 13.080813,58.5236659 13.3623325,58.7830142 C13.494213,58.9045095 13.6596831,58.9643483 13.8246026,58.9643483 C14.011961,58.9643483 14.1987688,58.8870332 14.3346416,58.7349194 L21.8644961,50.3039313 C22.1199974,50.0178791 22.0987974,49.5757986 21.8171403,49.3164502 L21.8171403,49.3164502 Z" id="Path"></path>
                    <path d="M14.0063169,37.5070829 C13.7246597,37.247455 13.2893714,37.2691256 13.0340078,37.5551777 L0.263072727,51.8542891 C0.00770909091,52.1403412 0.0289090909,52.5824218 0.310428571,52.8417701 C0.442309091,52.9632654 0.607779221,53.0231043 0.772698701,53.0231043 C0.960057143,53.0231043 1.14686494,52.9457891 1.28273766,52.7936754 L14.0536727,38.494564 C14.3090364,38.208372 14.2878364,37.7662915 14.0063169,37.5070829 L14.0063169,37.5070829 Z" id="Path"></path>
                    <path d="M11.7933948,43.6718839 L10.3194442,45.3222062 C10.0640805,45.6081185 10.0852805,46.0501991 10.3668,46.3096872 C10.4986805,46.4311825 10.6641506,46.4910213 10.8290701,46.4910213 C11.0164286,46.4910213 11.2032364,46.4137062 11.3391091,46.2615924 L12.8130597,44.6112701 C13.0684234,44.3253578 13.0472234,43.8832773 12.7657039,43.6237891 C12.4840468,43.3641611 12.0487584,43.3858318 11.7933948,43.6718839 L11.7933948,43.6718839 Z" id="Path"></path>
                    <path d="M2.46801039,33.1539455 L3.94196104,31.5034834 C4.19732468,31.2174313 4.17612468,30.7753507 3.89460519,30.5160024 C3.61294805,30.2563744 3.17765974,30.278045 2.9222961,30.5640972 L1.44834545,32.2145592 C1.19298182,32.5006114 1.21418182,32.9426919 1.4957013,33.2020403 C1.62758182,33.3235355 1.79305195,33.3833744 1.95797143,33.3833744 C2.14532987,33.3832346 2.33213766,33.3060592 2.46801039,33.1539455 L2.46801039,33.1539455 Z" id="Path"></path>
                </g>
            </g>
        </g>
    </g>
</svg>